# xmcd
#
# Track frame offsets: 
#        150
#        18607
#        35953
#        78432
#        100314
#        117662
#        135492
#        154651
#        178488
#
# Disc length: 2590 seconds
#
# Revision: 0
# Processed by: cddbd v1.5.2PL0 Copyright (c) Steve Scherf et al.
# Submitted via: ExactAudioCopy v1.3
#
DISCID=7e0a1c09
DTITLE=The Blues Overdrive - Overdrive Live!
DYEAR=2017
DGENRE=Blues
TTITLE0=Death On The Highway
TTITLE1=Three Time Lover
TTITLE2=Ball And Chain
TTITLE3=Highwater (For Charley Patton)
TTITLE4=Everybody Was Rocking
TTITLE5=Mr 16 Tons (Blues For Thorup)
TTITLE6=You Got The Power To Turn Me On
TTITLE7=Cherry
TTITLE8=I Was Wrong
EXTD=
EXTT0=
EXTT1=
EXTT2=
EXTT3=
EXTT4=
EXTT5=
EXTT6=
EXTT7=
EXTT8=
PLAYORDER=
